# xmcd
#
# Track frame offsets:
#	150
#	13033
#	25224
#	49535
#	60300
#	71301
#	81982
#	93620
#	105797
#	118168
#	129917
#	142086
#	152605
#	163886
#	177124
#	188757
#	198057
#	208608
#
# Disc length: 2939 seconds
#
# Revision: 0
# Processed by: cddbd v1.5.1PL0 Copyright (c) Steve Scherf et al.
# Submitted via: dBpowerAMP V4.0
#
DISCID=e70b7912
DTITLE=Various Artist - Rhythm and Blues
DYEAR=2005
DGENRE=R&B
TTITLE0=Ruth BROWN - Daddy, Daddy
TTITLE1=Louis JORDAN/ Caldonia
TTITLE2=Louis JORDAN - Saturday Night Fish Fry
TTITLE3=Rufus THOMAS - Walkin' In The Rain
TTITLE4=Little Junior PARKER - Mistery Train
TTITLE5=Roy MILTON - Rhythm Cocktail
TTITLE6=Hal SINGER - Rent Party
TTITLE7=Earl BOSTIC - Flamingo
TTITLE8=Otis BLACKWELL - Daddy Rolling Stone
TTITLE9=Johnny OTIS - AllnightLong
TTITLE10=Big Joe TURNER - Rebecca
TTITLE11=Ike TURNER - You're Driving Me Insane
TTITLE12=Willie DIXON - Don't Let That Music Die
TTITLE13=Percy MAYFIELD - Lost Love
TTITLE14=Jimmy WITHERSPOON - Lucille
TTITLE15=Big Mama THORNTON - They Call Me Big Mama
TTITLE16=Little Esther PHILIPS - Cherry Wine
TTITLE17=Lavern BAKER - How Can You Leave A Man Like This?
EXTD=
EXTT0=
EXTT1=
EXTT2=
EXTT3=
EXTT4=
EXTT5=
EXTT6=
EXTT7=
EXTT8=
EXTT9=
EXTT10=
EXTT11=
EXTT12=
EXTT13=
EXTT14=
EXTT15=
EXTT16=
EXTT17=
PLAYORDER=
